<svg width="177.29375px" height="62px" xmlns="http://www.w3.org/2000/svg" viewBox="161.353125 44 177.29375 62" style="background: rgba(0, 0, 0, 0);" preserveAspectRatio="xMidYMid"><defs><filter id="editing-hole" x="-100%" y="-100%" width="300%" height="300%"><feFlood flood-color="#000" result="black"></feFlood><feMorphology operator="dilate" radius="2" in="SourceGraphic" result="erode"></feMorphology><feGaussianBlur in="erode" stdDeviation="4" result="blur"></feGaussianBlur><feOffset in="blur" dx="2" dy="2" result="offset"></feOffset><feComposite operator="atop" in="offset" in2="black" result="merge"></feComposite><feComposite operator="in" in="merge" in2="SourceGraphic" result="inner-shadow"></feComposite></filter></defs><g filter="url(#editing-hole)"><g transform="translate(192.49001741409302, 86.77499866485596)"><path d="M20.13-1.86L20.13-1.86Q19.14-1.08 17.02-0.42L17.02-0.42L17.02-0.42Q14.91 0.24 13.11 0.24L13.11 0.24L13.11 0.24Q9.72 0.24 7.14-1.16L7.14-1.16L7.14-1.16Q4.56-2.55 3.17-4.98L3.17-4.98L3.17-4.98Q1.77-7.41 1.77-10.44L1.77-10.44L1.77-10.44Q1.77-13.98 3.27-16.57L3.27-16.57L3.27-16.57Q4.77-19.17 7.32-20.55L7.32-20.55L7.32-20.55Q9.87-21.93 12.90-21.93L12.90-21.93L12.90-21.93Q14.73-21.93 16.35-21.49L16.35-21.49L16.35-21.49Q17.97-21.06 19.26-20.34L19.26-20.34L18.30-17.67L18.30-17.67Q17.34-18.21 15.88-18.61L15.88-18.61L15.88-18.61Q14.43-19.02 13.26-19.02L13.26-19.02L13.26-19.02Q10.74-19.02 8.80-18L8.80-18L8.80-18Q6.87-16.98 5.82-15.09L5.82-15.09L5.82-15.09Q4.77-13.20 4.77-10.68L4.77-10.68L4.77-10.68Q4.77-8.34 5.82-6.51L5.82-6.51L5.82-6.51Q6.87-4.68 8.79-3.67L8.79-3.67L8.79-3.67Q10.71-2.67 13.17-2.67L13.17-2.67L13.17-2.67Q14.31-2.67 15.39-2.90L15.39-2.90L15.39-2.90Q16.47-3.12 17.19-3.54L17.19-3.54L17.19-7.83L12.87-7.83L12.87-10.62L20.13-10.62L20.13-1.86ZM23.91-6.33L23.91-6.33Q23.91-8.16 24.79-9.67L24.79-9.67L24.79-9.67Q25.68-11.19 27.25-12.06L27.25-12.06L27.25-12.06Q28.83-12.93 30.81-12.93L30.81-12.93L30.81-12.93Q32.79-12.93 34.34-12.06L34.34-12.06L34.34-12.06Q35.88-11.19 36.73-9.69L36.73-9.69L36.73-9.69Q37.59-8.19 37.59-6.33L37.59-6.33L37.59-6.33Q37.59-4.47 36.73-2.96L36.73-2.96L36.73-2.96Q35.88-1.44 34.32-0.57L34.32-0.57L34.32-0.57Q32.76 0.30 30.75 0.30L30.75 0.30L30.75 0.30Q28.80 0.30 27.24-0.53L27.24-0.53L27.24-0.53Q25.68-1.35 24.79-2.85L24.79-2.85L24.79-2.85Q23.91-4.35 23.91-6.33L23.91-6.33ZM26.73-6.30L26.73-6.30Q26.73-5.13 27.25-4.14L27.25-4.14L27.25-4.14Q27.78-3.15 28.70-2.58L28.70-2.58L28.70-2.58Q29.61-2.01 30.72-2.01L30.72-2.01L30.72-2.01Q32.46-2.01 33.60-3.24L33.60-3.24L33.60-3.24Q34.74-4.47 34.74-6.30L34.74-6.30L34.74-6.30Q34.74-8.13 33.60-9.38L33.60-9.38L33.60-9.38Q32.46-10.62 30.72-10.62L30.72-10.62L30.72-10.62Q29.58-10.62 28.68-10.04L28.68-10.04L28.68-10.04Q27.78-9.45 27.25-8.46L27.25-8.46L27.25-8.46Q26.73-7.47 26.73-6.30L26.73-6.30ZM51.51-23.25L54.30-23.25L54.30 0L51.48 0L51.48-1.95L51.48-1.95Q50.58-0.90 49.27-0.30L49.27-0.30L49.27-0.30Q47.97 0.30 46.41 0.30L46.41 0.30L46.41 0.30Q44.67 0.30 43.26-0.54L43.26-0.54L43.26-0.54Q41.85-1.38 41.05-2.90L41.05-2.90L41.05-2.90Q40.26-4.41 40.26-6.39L40.26-6.39L40.26-6.39Q40.26-8.40 41.10-9.88L41.10-9.88L41.10-9.88Q41.94-11.37 43.41-12.15L43.41-12.15L43.41-12.15Q44.88-12.93 46.74-12.93L46.74-12.93L46.74-12.93Q48.15-12.93 49.45-12.34L49.45-12.34L49.45-12.34Q50.76-11.76 51.51-10.74L51.51-10.74L51.51-23.25ZM47.28-2.10L47.28-2.10Q48.90-2.10 50.02-2.97L50.02-2.97L50.02-2.97Q51.15-3.84 51.48-5.31L51.48-5.31L51.48-7.65L51.48-7.65Q51.12-9 49.95-9.86L49.95-9.86L49.95-9.86Q48.78-10.71 47.28-10.71L47.28-10.71L47.28-10.71Q46.14-10.71 45.18-10.15L45.18-10.15L45.18-10.15Q44.22-9.60 43.65-8.63L43.65-8.63L43.65-8.63Q43.08-7.65 43.08-6.42L43.08-6.42L43.08-6.42Q43.08-5.22 43.65-4.23L43.65-4.23L43.65-4.23Q44.22-3.24 45.18-2.67L45.18-2.67L45.18-2.67Q46.14-2.10 47.28-2.10L47.28-2.10ZM75.06-12.93L75.06-12.93Q76.86-12.93 77.92-11.91L77.92-11.91L77.92-11.91Q78.99-10.89 79.05-9.21L79.05-9.21L79.05 0L76.26 0L76.26-8.19L76.26-8.19Q76.17-10.38 74.28-10.50L74.28-10.50L74.28-10.50Q73.20-10.50 72.34-9.86L72.34-9.86L72.34-9.86Q71.49-9.21 71.01-8.16L71.01-8.16L71.01-8.16Q70.53-7.11 70.50-5.91L70.50-5.91L70.50 0L67.68 0L67.68-8.19L67.68-8.19Q67.59-10.38 65.64-10.50L65.64-10.50L65.64-10.50Q64.59-10.50 63.73-9.86L63.73-9.86L63.73-9.86Q62.88-9.21 62.40-8.14L62.40-8.14L62.40-8.14Q61.92-7.08 61.92-5.88L61.92-5.88L61.92 0L59.13 0L59.13-12.42L61.65-12.42L61.86-10.08L61.86-10.08Q62.58-11.43 63.82-12.18L63.82-12.18L63.82-12.18Q65.07-12.93 66.66-12.93L66.66-12.93L66.66-12.93Q68.16-12.93 69.18-12.22L69.18-12.22L69.18-12.22Q70.20-11.52 70.50-10.29L70.50-10.29L70.50-10.29Q71.28-11.52 72.48-12.22L72.48-12.22L72.48-12.22Q73.68-12.93 75.06-12.93L75.06-12.93ZM94.05-12.42L96.63-12.42L96.63 0L93.84 0L93.84-2.04L93.84-2.04Q93.18-1.17 91.92-0.43L91.92-0.43L91.92-0.43Q90.66 0.30 89.07 0.30L89.07 0.30L89.07 0.30Q87.30 0.30 85.87-0.46L85.87-0.46L85.87-0.46Q84.45-1.23 83.62-2.70L83.62-2.70L83.62-2.70Q82.80-4.17 82.80-6.21L82.80-6.21L82.80-6.21Q82.80-8.25 83.65-9.76L83.65-9.76L83.65-9.76Q84.51-11.28 85.96-12.11L85.96-12.11L85.96-12.11Q87.42-12.93 89.19-12.93L89.19-12.93L89.19-12.93Q90.78-12.93 91.95-12.24L91.95-12.24L91.95-12.24Q93.12-11.55 93.84-10.44L93.84-10.44L94.05-12.42ZM89.82-2.01L89.82-2.01Q91.35-2.01 92.44-2.86L92.44-2.86L92.44-2.86Q93.54-3.72 93.84-5.19L93.84-5.19L93.84-7.65L93.84-7.65Q93.48-8.97 92.34-9.79L92.34-9.79L92.34-9.79Q91.20-10.62 89.73-10.62L89.73-10.62L89.73-10.62Q88.62-10.62 87.67-10.08L87.67-10.08L87.67-10.08Q86.73-9.54 86.17-8.56L86.17-8.56L86.17-8.56Q85.62-7.59 85.62-6.36L85.62-6.36L85.62-6.36Q85.62-5.16 86.19-4.17L86.19-4.17L86.19-4.17Q86.76-3.18 87.72-2.59L87.72-2.59L87.72-2.59Q88.68-2.01 89.82-2.01L89.82-2.01ZM109.20-12.90L109.20-12.90Q110.94-12.90 112.08-11.87L112.08-11.87L112.08-11.87Q113.22-10.83 113.25-9.18L113.25-9.18L113.25 0L110.43 0L110.43-8.22L110.43-8.22Q110.37-9.27 109.80-9.87L109.80-9.87L109.80-9.87Q109.23-10.47 108.09-10.50L108.09-10.50L108.09-10.50Q106.44-10.50 105.36-9.18L105.36-9.18L105.36-9.18Q104.28-7.86 104.28-5.82L104.28-5.82L104.28 0L101.49 0L101.49-12.42L104.01-12.42L104.19-10.02L104.19-10.02Q104.85-11.37 106.17-12.13L106.17-12.13L106.17-12.13Q107.49-12.90 109.20-12.90L109.20-12.90Z" fill="#ffffff"></path></g></g><style>text {
  font-size: 64px;
  color: #ffffff;
  font-family: Arial Black;
  dominant-baseline: central;
  text-anchor: middle;
}</style></svg>